<svg xmlns="http://www.w3.org/2000/svg" viewBox="0 0 240 240" role="img" aria-labelledby="title desc">
  <title id="title">KAILAS logo</title>
  <desc id="desc">KAILAS brand mark in white on a black square.</desc>
  <rect width="240" height="240" rx="0" fill="#050505"/>
  <g fill="#fff">
    <path d="M119 38 132 51 120 64 108 64 108 51Z"/>
    <path d="M68 59 83 53 97 67 83 76Z"/>
    <path d="M158 67 171 55 184 57 188 70 174 82Z"/>
    <path d="M193 104 222 104 217 119 192 116Z"/>
    <path d="M183 136 201 151 190 160 171 146Z"/>
    <path d="M116 169 133 169 133 181 111 198 97 194Z"/>
    <path d="M58 126 36 126 30 112 56 112 69 100 80 108 72 121Z"/>
    <path d="M98 78 148 78 172 103 150 130 98 130 73 105Z"/>
    <path fill="#050505" d="M105 94 141 94 153 106 140 117 105 117 92 105Z"/>
  </g>
  <text x="120" y="206" fill="#fff" text-anchor="middle"
        font-family="Arial Black, Impact, Arial, sans-serif"
        font-size="39" font-weight="900" letter-spacing="1.5">KAILAS</text>
</svg>
